<svg xmlns="http://www.w3.org/2000/svg" viewBox="0 0 1352 560" width="1352" height="560"><text x="70" y="300" font-family="&#39;Kaushan Script&#39;,cursive" font-size="180" fill="#1C4632">Paseka Seleke</text><path d="M1046 308 C1102 322, 1088 318, 1122 288" stroke="#1C4632" stroke-width="3.4" fill="none" stroke-linecap="round"></path><g transform="translate(1122,288) rotate(45) scale(1.7)"><path d="M-10 -69 L-10 -150 C-10 -158 -5 -161 0 -161 C5 -161 10 -158 10 -150 L10 -69 Z" fill="#1C4632"></path><path d="M0 -82 L0 -146" stroke="#FCFAF2" stroke-width="1.3" stroke-linecap="round" opacity="0.5"></path><path d="M5 -88 L5 -150 C5 -155 8 -155 8 -150 L8 -92 C8 -88 5 -88 5 -88 Z" fill="#FCFAF2"></path><path d="M-9 -64 L-9 -69 L9 -69 L9 -64 Z" fill="#4F7A5E"></path><path d="M-11 -44 L-9 -64 L9 -64 L11 -44 Z" fill="#1C4632"></path><path d="M0 0 L-11 -42 C-9 -50 -5 -53 0 -54 C5 -53 9 -50 11 -42 Z" fill="#1C4632"></path><circle cx="0" cy="-38" r="2.6" fill="#FCFAF2"></circle><path d="M0 -36 L0 -5" stroke="#FCFAF2" stroke-width="1.8" stroke-linecap="round"></path></g><text x="676" y="510" font-family="&#39;Jost&#39;,sans-serif" font-weight="500" font-size="42" letter-spacing="11" text-anchor="middle" fill="#4F7A5E">CONSULTANCY SERVICES</text></svg>
